<?xml version="1.0" encoding="UTF-8"?>
<svg width="640px" height="789px" viewBox="0 0 640 789" version="1.1" xmlns="http://www.w3.org/2000/svg" xmlns:xlink="http://www.w3.org/1999/xlink">
    <title>bingbong (dragged)</title>
    <g id="bingbong-(dragged)" stroke="none" stroke-width="1" fill="none" fill-rule="evenodd">
        <path d="M11.2784,304.5966 C11.2804,303.7036 11.9804,303.1086 12.7794,303.110595 L78.7794,303.2676 C79.4784,303.2696 80.1764,303.8676 80.1744043,304.7606 L80.1324,322.3296 C80.1314,323.0236 79.4304,323.7156 78.7324,323.7156 L12.7314,323.5576 C11.9324,323.5556 11.2354,322.8596 11.2363989,322.1646 L11.2784,304.5966 Z" id="Fill-1" fill="#fff"></path>
        <path d="M22.0597,228.1347 C22.2287,227.2577 23.0277,226.8047 23.8107,226.9547 L88.6297,239.3777 C89.3167,239.5097 89.8907,240.2257 89.7227,241.1027 L86.4907,257.9677 C86.3607,258.6497 85.7027,259.4337 84.8247,259.7707 L51.0767,270.8877 L81.4757,276.7147 C82.1627,276.8457 82.7367,277.5617 82.5687,278.4397 L79.2617,295.6937 C79.1127,296.4737 78.3137,296.9267 77.6267,296.7947 L12.8087,284.3727 C12.0237,284.2227 11.4497,283.5067 11.5987,282.7257 L14.8307,265.8617 C14.9987,264.9847 15.6757,264.1037 16.5357,263.8637 L50.2637,252.8427 L19.9627,247.0367 C19.1787,246.8867 18.6227,246.0717 18.7537,245.3897 L22.0597,228.1347 Z" id="Fill-3" fill="#fff"></path>
        <path d="M58.7813,144.809 C59.1323,144.097 59.9773,143.96 60.4733,144.536 L109.7253,194.123 C110.2653,194.611 110.5413,195.632 110.1913,196.344 L100.5443,215.933 C100.1933,216.645 99.2163,217.048 98.5013,216.917 L29.1653,208.111 C28.4073,208.069 27.9993,207.315 28.3493,206.603 L38.1283,186.747 C38.5223,185.946 39.5013,185.542 40.2163,185.673 L81.6323,194.451 L49.4243,166.974 C48.8853,166.488 48.6083,165.466 49.0023,164.664 L58.7813,144.809 Z" id="Fill-4" fill="#fff"></path>
        <path d="M81.2765,116.5634 C81.8195,115.8554 82.7365,115.8074 83.3705,116.2924 L135.7655,156.4224 C136.3205,156.8474 136.5135,157.7454 135.9695,158.4544 L125.2905,172.4034 C124.8675,172.9544 123.8905,173.0814 123.3365,172.6564 L70.9395,132.5254 C70.3055,132.0414 70.1725,131.0634 70.5955,130.5114 L81.2765,116.5634 Z" id="Fill-5" fill="#fff"></path>
        <path d="M130.0392,132.7806 C129.5712,131.8486 129.8722,131.1546 130.7932,130.9736 C135.8962,129.7356 141.1722,127.3766 144.1242,125.0086 C146.4362,122.8316 146.9292,120.3136 145.3542,118.6406 C141.3162,114.3506 121.2122,133.6836 106.2952,117.8326 C97.1252,108.0906 98.3352,94.7496 109.3212,84.4096 C114.4522,79.5806 122.9412,75.5666 130.4372,74.4076 C131.3572,74.2276 132.1222,74.6046 132.2472,75.1726 L137.3432,89.7096 C137.8102,90.6406 137.5102,91.3356 136.5892,91.5156 C131.1322,92.8126 125.5742,95.1626 122.8402,97.3266 C120.6002,99.4356 120.1122,101.8136 121.6172,103.4126 C125.6542,107.7016 145.8352,88.1616 160.8902,104.1566 C169.9902,113.8266 168.6372,127.3036 157.5072,137.7796 C151.4352,143.4926 143.2962,147.5896 136.9442,148.0816 C135.9562,148.1896 135.2602,147.8846 135.1352,147.3176 L130.0392,132.7806 Z" id="Fill-6" fill="#fff"></path>
        <path d="M156.8302,49.3402 C157.5702,48.8422 158.4562,49.0892 158.9022,49.7512 L195.7872,104.4712 C196.1782,105.0502 196.0742,105.9622 195.3332,106.4622 L180.7672,116.2802 C180.1902,116.6692 179.2242,116.4772 178.8332,115.8982 L141.9492,61.1782 C141.5022,60.5152 141.6872,59.5482 142.2642,59.1592 L156.8302,49.3402 Z" id="Fill-7" fill="#fff"></path>
        <path d="M220.0411,73.4564 C222.6681,72.2804 223.7051,69.7384 222.5221,67.0954 C221.3401,64.4524 218.7531,63.5324 216.1261,64.7074 L208.7871,67.9914 L212.7021,76.7404 L220.0411,73.4564 Z M208.6231,52.3154 C211.3411,51.0994 212.4191,48.6474 211.2771,46.0974 C210.1361,43.5454 207.5891,42.7154 204.8711,43.9314 L199.1641,46.4854 L202.9151,54.8694 L208.6231,52.3154 Z M201.7401,25.7554 C213.6081,20.4444 224.6701,24.0244 229.4411,34.6864 C232.3781,41.2484 231.3671,47.4964 227.1281,51.1434 C233.4871,50.0474 239.6491,53.8524 243.0331,61.4164 C247.8051,72.0784 243.1031,82.7134 231.3251,87.9834 L202.6061,100.8354 C201.8821,101.1594 201.0531,100.7664 200.7681,100.1284 L173.8131,39.8934 C173.5271,39.2554 173.7451,38.2824 174.4701,37.9584 L201.7401,25.7554 Z" id="Fill-8" fill="#fff"></path>
        <path d="M289.7667,52.8226 C290.4467,52.6746 291.1557,53.1336 291.3257,53.9136 L293.1997,69.0366 C293.2507,69.7416 292.7207,70.5716 291.9457,70.7416 L256.9397,78.3706 C256.1637,78.5396 255.3357,78.0046 255.1877,77.3226 L241.1347,12.8406 C240.9647,12.0596 241.4947,11.2286 242.2707,11.0596 L259.4337,7.3186 C260.2097,7.1506 261.0377,7.6846 261.2067,8.4656 L271.7307,56.7536 L289.7667,52.8226 Z" id="Fill-9" fill="#fff"></path>
        <path d="M345.0177,50.7767 C345.8117,50.7637 346.5157,51.3507 346.5287,52.0497 L346.788883,67.3207 C346.8017,68.0207 346.1197,68.7317 345.3247,68.7447 L299.1817,69.5348587 C298.4877,69.5477 297.7797,68.7597 297.5687,68.0647 L296.439319,2.0847 C296.4237,1.1857 296.9127,0.6777 297.8047,0.6627 L342.9547,-0.110541577 C343.8487,-0.1253 344.5557,0.5607 344.5677,1.2597 L344.8257,16.3337 C344.8397,17.2317 344.1567,17.8417 343.2627,17.8577 L317.3637,18.2997 L317.4977,26.1857 L338.5357,25.8257 C339.4287,25.8107 339.9367,26.5017 339.8477,27.1017 L338.6987,41.1007 C338.6087,41.7007 337.9257,42.4117 337.0327,42.4277 L317.7817,42.7567 L317.9267,51.2417 L345.0177,50.7767 Z" id="Fill-10" fill="#fff"></path>
        <path d="M426.0763,15.7899 C426.9423,16.0099 427.3473,16.8339 427.1743,17.5119 L423.4503,32.1189 C423.2283,32.9909 422.5043,33.4239 421.6383,33.2039 L397.2113,26.9779 L394.9683,35.7819 L414.2973,40.7069 C415.1633,40.9279 415.4713,41.7279 415.2273,42.2839 L410.4293,55.4859 C410.1833,56.0409 409.3393,56.5469 408.4723,56.3269 L390.8743,51.8409 L384.9813,74.9629 C384.8073,75.6399 383.9623,76.1459 383.1933,75.9489 L366.1723,71.6109 C365.4023,71.4149 365.0223,70.4939 365.1953,69.8169 L381.4943,5.8689 C381.6673,5.1909 382.4173,4.6619 383.1853,4.8569 L426.0763,15.7899 Z" id="Fill-11" fill="#fff"></path>
        <path d="M454.8419,59.6703 C457.8499,61.1983 460.8349,60.3643 462.2819,57.5163 C463.7299,54.6683 462.6449,51.7643 459.6359,50.2363 L454.4169,47.5843 L449.6219,57.0183 L454.8419,59.6703 Z M464.2749,107.9183 C464.3109,108.9443 463.3749,109.2533 462.5779,108.8483 L443.6459,99.2263 C442.7609,98.7763 442.2799,97.7493 442.3339,96.7673 L442.9929,72.6893 L441.9329,72.1483 L431.9819,91.7313 C431.6639,92.3533 430.7279,92.6613 429.9319,92.2573 L414.3619,84.3433 C413.6539,83.9833 413.3509,83.0453 413.6669,82.4233 L443.5669,23.5903 C443.9289,22.8773 444.8639,22.5693 445.5719,22.9283 L468.9289,34.7993 C482.5539,41.7233 487.5069,54.3193 481.3549,66.4253 C477.7809,73.4573 469.9159,78.4193 461.8329,77.8963 L464.2749,107.9183 Z" id="Fill-12" fill="#fff"></path>
        <path d="M521.7443,68.8207 C522.4583,69.3607 522.5113,70.2757 522.0293,70.9147 L482.2463,123.5687 C481.8253,124.1267 480.9293,124.3247 480.2163,123.7867 L466.1993,113.1957 C465.6443,112.7777 465.5123,111.7997 465.9323,111.2427 L505.7173,58.5877 C506.1983,57.9507 507.1743,57.8107 507.7283,58.2297 L521.7443,68.8207 Z" id="Fill-13" fill="#fff"></path>
        <path d="M532.6212,150.3353 C533.1652,150.9123 533.2072,151.8283 532.6992,152.3083 L521.5912,162.7963 C521.0832,163.2763 520.0992,163.2513 519.5532,162.6733 L487.8672,129.1153 C487.3912,128.6103 487.4952,127.5573 487.8662,126.9323 L535.8542,81.6223 C536.5092,81.0043 537.2122,81.0233 537.8252,81.6723 L568.8292,114.5093 C569.4422,115.1593 569.4112,116.1443 568.9032,116.6243 L557.9402,126.9743 C557.2872,127.5913 556.3752,127.4973 555.7622,126.8493 L537.9762,108.0123 L532.2412,113.4273 L546.6872,128.7273 C547.3012,129.3773 547.1332,130.2163 546.6292,130.5553 L535.5112,139.1433 C535.0072,139.4813 534.0222,139.4573 533.4092,138.8063 L520.1892,124.8063 L514.0182,130.6333 L532.6212,150.3353 Z" id="Fill-14" fill="#fff"></path>
        <path d="M611.2003,182.0487 C611.6403,182.8247 611.3273,183.6877 610.6323,184.0827 L553.2373,216.6537 C552.6293,216.9997 551.7273,216.8257 551.2863,216.0497 L542.8123,201.1177 C542.4703,200.5137 542.4633,199.4897 542.9133,198.6637 L561.3943,168.3197 L534.4763,183.5967 C533.8693,183.9417 532.9683,183.7697 532.5263,182.9927 L523.8563,167.7147 C523.4653,167.0237 523.7783,166.1607 524.3873,165.8157 L581.7823,133.2427 C582.4773,132.8487 583.3793,133.0227 583.7703,133.7117 L592.2443,148.6447 C592.6843,149.4217 592.7413,150.5297 592.2423,151.2707 L573.7123,181.5277 L600.5423,166.3017 C601.2373,165.9067 602.1883,166.1667 602.5303,166.7707 L611.2003,182.0487 Z" id="Fill-15" fill="#fff"></path>
        <path d="M577.8527,242.2426 C579.8037,249.6326 587.4937,252.9406 597.0497,250.4176 C606.6067,247.8926 611.6617,241.2206 609.7097,233.8306 L608.3917,228.8416 L576.5347,237.2526 L577.8527,242.2426 Z M626.7827,228.0906 C632.1547,248.4356 622.5007,265.4586 602.4217,270.7616 C582.5347,276.0126 565.5437,266.0236 560.1717,245.6796 L554.2937,223.4146 C554.1167,222.7426 554.6147,221.8926 555.3857,221.6896 L619.1007,204.8656 C619.8737,204.6616 620.7267,205.1536 620.9037,205.8266 L626.7827,228.0906 Z" id="Fill-16" fill="#fff"></path>
        <path d="M589.838,288.4652 C590.843,288.7402 591.157,289.4292 590.675,290.2332 C588.175,294.8532 586.394,300.3502 586.174,304.1282 C586.24,307.3032 587.781,309.3552 590.077,309.3072 C595.967,309.1832 595.081,281.3052 616.841,280.8482 C630.218,280.5672 639.312,290.4022 639.63,305.4862 C639.778,312.5322 637.071,321.5242 632.91,327.8652 C632.428,328.6712 631.636,328.9842 631.13,328.6962 L616.925,322.7412 C615.919,322.4652 615.606,321.7762 616.088,320.9722 C618.78,316.0512 620.757,310.3502 620.984,306.8702 C620.919,303.7952 619.481,301.8392 617.284,301.8862 C611.396,302.0102 612.385,330.0842 590.425,330.5452 C577.148,330.8252 568.049,320.7892 567.728,305.5072 C567.552,297.1722 569.964,288.3852 573.853,283.3402 C574.435,282.5332 575.127,282.2212 575.632,282.5082 L589.838,288.4652 Z" id="Fill-17" fill="#fff"></path>
        <path d="M633.882,484.6425 C633.879,485.5355 633.18,486.1295 632.381,486.127505 L566.38,485.9705 C565.682,485.9685 564.984,485.3715 564.985996,484.4785 L565.027,466.9095 C565.028,466.2165 565.73,465.5235 566.428,465.5235 L632.429,465.6805 C633.228,465.6835 633.925,466.3795 633.923004,467.0745 L633.882,484.6425 Z" id="Fill-18" fill="#fff"></path>
        <path d="M623.0997,561.1044 C622.9317,561.9814 622.1337,562.4344 621.3487,562.2844 L556.5307,549.8624 C555.8437,549.7294 555.2697,549.0134 555.4377,548.1354 L558.6687,531.2714 C558.7997,530.5884 559.4577,529.8054 560.3357,529.4674 L594.0837,518.3514 L563.6847,512.5244 C562.9977,512.3934 562.4237,511.6764 562.5917,510.8004 L565.8987,493.5454 C566.0477,492.7644 566.8467,492.3114 567.5327,492.4444 L632.3517,504.8664 C633.1357,505.0164 633.7097,505.7334 633.5617,506.5134 L630.3287,523.3774 C630.1617,524.2544 629.4847,525.1354 628.6247,525.3754 L594.8957,536.3954 L625.1977,542.2034 C625.9817,542.3534 626.5377,543.1674 626.4077,543.8504 L623.0997,561.1044 Z" id="Fill-19" fill="#fff"></path>
        <path d="M586.38,644.4306 C586.028,645.1426 585.183,645.2796 584.687,644.7026 L535.435,595.1166 C534.895,594.6276 534.618,593.6086 534.97,592.8956 L544.616,573.3056 C544.968,572.5946 545.945,572.1906 546.659,572.3216 L615.995,581.1276 C616.753,581.1696 617.161,581.9236 616.811,582.6356 L607.032,602.4916 C606.638,603.2926 605.659,603.6976 604.944,603.5666 L563.528,594.7876 L595.737,622.2646 C596.276,622.7506 596.552,623.7726 596.157,624.5746 L586.38,644.4306 Z" id="Fill-20" fill="#fff"></path>
        <path d="M563.8839,672.6757 C563.3409,673.3847 562.4239,673.4327 561.7899,672.9467 L509.3939,632.8167 C508.8389,632.3917 508.6469,631.4927 509.1899,630.7837 L519.8699,616.8367 C520.2919,616.2847 521.2699,616.1577 521.8239,616.5827 L574.2199,656.7127 C574.8549,657.1987 574.9879,658.1757 574.5649,658.7277 L563.8839,672.6757 Z" id="Fill-21" fill="#fff"></path>
        <path d="M515.1202,656.4589 C515.5882,657.3899 515.2872,658.0849 514.3672,658.2649 C509.2632,659.5029 503.9872,661.8639 501.0362,664.2299 C498.7242,666.4069 498.2312,668.9259 499.8062,670.5989 C503.8432,674.8879 523.9472,655.5559 538.8652,671.4059 C548.0352,681.1479 546.8252,694.4889 535.8392,704.8289 C530.7082,709.6589 522.2182,713.6729 514.7222,714.8309 C513.8022,715.0119 513.0382,714.6349 512.9132,714.0659 L507.8172,699.5299 C507.3492,698.5989 507.6502,697.9029 508.5712,697.7239 C514.0282,696.4259 519.5852,694.0759 522.3202,691.9129 C524.5592,689.8049 525.0482,687.4259 523.5432,685.8259 C519.5062,681.5369 499.3252,701.0779 484.2702,685.0819 C475.1692,675.4119 476.5232,661.9359 487.6532,651.4599 C493.7252,645.7459 501.8642,641.6489 508.2152,641.1569 C509.2042,641.0489 509.8992,641.3549 510.0252,641.9219 L515.1202,656.4589 Z" id="Fill-22" fill="#fff"></path>
        <path d="M488.3204,739.9032 C487.5794,740.4022 486.6944,740.1542 486.2484,739.4932 L449.3724,684.7682 C448.9814,684.1882 449.0864,683.2762 449.8264,682.7772 L464.3934,672.9582 C464.9694,672.5712 465.9364,672.7612 466.3264,673.3412 L503.2024,728.0652 C503.6484,728.7282 503.4634,729.6952 502.8864,730.0842 L488.3204,739.9032 Z" id="Fill-23" fill="#fff"></path>
        <path d="M436.5363,736.9227 C433.8183,738.1397 432.7413,740.5907 433.8823,743.1417 C435.0243,745.6937 437.5693,746.5237 440.2883,745.3067 L445.9963,742.7527 L442.2443,734.3687 L436.5363,736.9227 Z M425.1183,715.7817 C422.4913,716.9577 421.4543,719.4997 422.6373,722.1427 C423.8193,724.7847 426.4063,725.7067 429.0343,724.5297 L436.3723,721.2467 L432.4573,712.4977 L425.1183,715.7817 Z M443.4203,763.4847 C431.5513,768.7937 420.4893,765.2137 415.7183,754.5517 C412.7823,747.9897 413.7923,741.7417 418.0313,738.0947 C411.6713,739.1907 405.5113,735.3857 402.1263,727.8207 C397.3543,717.1597 402.0563,706.5257 413.8333,701.2547 L442.5533,688.4027 C443.2783,688.0777 444.1063,688.4737 444.3913,689.1107 L471.3463,749.3457 C471.6313,749.9837 471.4143,750.9557 470.6883,751.2787 L443.4203,763.4847 Z" id="Fill-24" fill="#fff"></path>
        <path d="M355.3917,736.4149 C354.7137,736.5629 354.0037,736.1039 353.8347,735.3249 L351.9597,720.2019 C351.9097,719.4969 352.4387,718.6669 353.2137,718.4969 L388.2197,710.8669 C388.9957,710.6979 389.8237,711.2339 389.9717,711.9169 L404.0247,776.3969 C404.1947,777.1789 403.6647,778.0089 402.8887,778.1779 L385.7257,781.9189 C384.9507,782.0889 384.1217,781.5529 383.9527,780.7719 L373.4287,732.4839 L355.3917,736.4149 Z" id="Fill-25" fill="#fff"></path>
        <path d="M300.1427,738.4628 C299.3487,738.4768 298.6447,737.8898 298.6317,737.1908 L298.371517,721.9188 C298.3587,721.2198 299.0417,720.5088 299.8357,720.4948 L345.9787,719.705616 C346.6727,719.6918 347.3817,720.4808 347.5917,721.1748 L348.721129,787.1548 C348.7377,788.0548 348.2487,788.5618 347.3557,788.5768 L302.2057,789.351011 C301.3117,789.3648 300.6057,788.6788 300.5937,787.9808 L300.3347,772.9068 C300.3207,772.0088 301.0037,771.3988 301.8977,771.3818 L327.7967,770.9408 L327.6627,763.0538 L306.6247,763.4138 C305.7317,763.4298 305.2237,762.7378 305.3127,762.1378 L306.4627,748.1408 C306.5517,747.5398 307.2347,746.8288 308.1267,746.8138 L327.3777,746.4838 L327.2337,737.9988 L300.1427,738.4628 Z" id="Fill-26" fill="#fff"></path>
        <path d="M219.0841,773.451 C218.2191,773.23 217.8141,772.406 217.9861,771.727 L221.7101,757.12 C221.9321,756.249 222.6571,755.815 223.5221,756.037 L247.9491,762.263 L250.1931,753.458 L230.8631,748.532 C229.9981,748.311 229.6891,747.512 229.9351,746.955 L234.7321,733.754 C234.9771,733.198 235.8221,732.692 236.6881,732.914 L254.2861,737.398 L260.1801,714.277 C260.3531,713.6 261.1981,713.094 261.9681,713.291 L278.9891,717.628 C279.7591,717.825 280.1391,718.746 279.9661,719.424 L263.6661,783.371 C263.4941,784.049 262.7441,784.578 261.9751,784.382 L219.0841,773.451 Z" id="Fill-27" fill="#fff"></path>
        <path d="M190.3185,729.5692 C187.3105,728.0412 184.3265,728.8752 182.8795,731.7242 C181.4305,734.5712 182.5155,737.4752 185.5245,739.0052 L190.7435,741.6572 L195.5385,732.2222 L190.3185,729.5692 Z M180.8855,681.3212 C180.8505,680.2962 181.7865,679.9872 182.5825,680.3912 L201.5145,690.0132 C202.4005,690.4642 202.8805,691.4902 202.8265,692.4722 L202.1665,716.5502 L203.2285,717.0902 L213.1795,697.5082 C213.4965,696.8862 214.4325,696.5782 215.2285,696.9822 L230.7995,704.8962 C231.5065,705.2562 231.8105,706.1942 231.4935,706.8162 L201.5935,765.6492 C201.2325,766.3622 200.2975,766.6712 199.5885,766.3112 L176.2325,754.4402 C162.6075,747.5162 157.6545,734.9202 163.8055,722.8152 C167.3795,715.7832 175.2445,710.8202 183.3275,711.3442 L180.8855,681.3212 Z" id="Fill-28" fill="#fff"></path>
        <path d="M123.4161,720.4188 C122.7031,719.8808 122.6491,718.9638 123.1311,718.3268 L162.9141,665.6718 C163.3361,665.1138 164.2321,664.9148 164.9451,665.4538 L178.9611,676.0448 C179.5161,676.4628 179.6481,677.4398 179.2281,677.9968 L139.4431,730.6518 C138.9621,731.2898 137.9861,731.4288 137.4331,731.0098 L123.4161,720.4188 Z" id="Fill-29" fill="#fff"></path>
        <path d="M112.5401,638.9042 C111.9951,638.3272 111.9531,637.4112 112.4621,636.9302 L123.5691,626.4432 C124.0781,625.9642 125.0621,625.9882 125.6071,626.5662 L157.2931,660.1252 C157.7701,660.6312 157.6661,661.6832 157.2941,662.3062 L109.3061,707.6182 C108.6521,708.2352 107.9481,708.2172 107.3351,707.5682 L76.3311,674.7302 C75.7181,674.0802 75.7491,673.0952 76.2581,672.6162 L87.2201,662.2652 C87.8731,661.6482 88.7861,661.7422 89.3991,662.3912 L107.1841,681.2272 L112.9191,675.8122 L98.4741,660.5122 C97.8601,659.8632 98.0281,659.0222 98.5311,658.6842 L109.6491,650.0962 C110.1531,649.7582 111.1381,649.7832 111.7521,650.4332 L124.9711,664.4332 L131.1431,658.6062 L112.5401,638.9042 Z" id="Fill-30" fill="#fff"></path>
        <path d="M33.9591,607.1913 C33.5191,606.4143 33.8331,605.5513 34.5271,605.1573 L91.9231,572.5853 C92.5311,572.2393 93.4331,572.4133 93.8731,573.1893 L102.3481,588.1223 C102.6901,588.7253 102.6961,589.7493 102.2471,590.5753 L83.7661,620.9203 L110.6841,605.6433 C111.2911,605.2973 112.1921,605.4703 112.6331,606.2473 L121.3031,621.5243 C121.6941,622.2143 121.3811,623.0793 120.7731,623.4233 L63.3781,655.9963 C62.6831,656.3893 61.7811,656.2163 61.3901,655.5273 L52.9151,640.5943 C52.4751,639.8173 52.4191,638.7093 52.9181,637.9683 L71.4481,607.7113 L44.6171,622.9383 C43.9231,623.3323 42.9721,623.0733 42.6291,622.4683 L33.9591,607.1913 Z" id="Fill-31" fill="#fff"></path>
        <path d="M67.3077,546.9979 C65.3567,539.6079 57.6667,536.3009 48.1097,538.8239 C38.5527,541.3489 33.4987,548.0189 35.4507,555.4099 L36.7677,560.3999 L68.6247,551.9879 L67.3077,546.9979 Z M18.3777,561.1489 C13.0057,540.8049 22.6597,523.7819 42.7387,518.4789 C62.6247,513.2279 79.6167,523.2159 84.9887,543.5609 L90.8667,565.8249 C91.0437,566.4969 90.5457,567.3479 89.7737,567.5519 L26.0587,584.3759 C25.2867,584.5789 24.4337,584.0859 24.2557,583.4139 L18.3777,561.1489 Z" id="Fill-32" fill="#fff"></path>
        <path d="M55.3224,500.7763 C54.3174,500.4993 54.0044,499.8103 54.4864,499.0063 C56.9854,494.3863 58.7674,488.8893 58.9864,485.1123 C58.9204,481.9363 57.3804,479.8843 55.0844,479.9323 C49.1944,480.0563 50.0814,507.9343 28.3194,508.3923 C14.9434,508.6723 5.8484,498.8373 5.5314,483.7533 C5.3834,476.7083 8.0904,467.7153 12.2504,461.3743 C12.7324,460.5703 13.5254,460.2553 14.0304,460.5433 L28.2364,466.4983 C29.2414,466.7753 29.5554,467.4633 29.0734,468.2673 C26.3804,473.1883 24.4034,478.8893 24.1764,482.3693 C24.2414,485.4443 25.6804,487.4003 27.8774,487.3533 C33.7664,487.2303 32.7754,459.1553 54.7364,458.6943 C68.0124,458.4153 77.1114,468.4503 77.4334,483.7323 C77.6084,492.0673 75.1974,500.8543 71.3084,505.9003 C70.7254,506.7063 70.0334,507.0183 69.5284,506.7323 L55.3224,500.7763 Z" id="Fill-33" fill="#fff"></path>
        <path d="M23.6114,401.7255 L23.6114,401.9375 L23.6114,401.7255 Z M32.0784,390.6655 C32.5014,390.6655 32.8724,391.0365 32.8724,391.4075 L32.8724,408.2345 C32.8724,408.7105 32.6074,409.1875 32.2364,409.5045 C29.0614,412.2035 24.1934,413.7905 19.1134,413.7905 C7.6824,413.7905 0.0624,406.1705 0.0624,394.7405 C0.0624,383.3105 7.6824,375.6905 19.1134,375.6905 C23.0294,375.6905 27.1564,376.8545 30.2254,378.7595 C30.6494,378.9715 30.8074,379.3945 30.7024,379.7125 L28.0564,387.4915 C27.8974,387.8615 27.5274,388.0205 27.0504,387.9145 C24.8814,386.7505 22.0764,386.0625 19.4304,386.0625 C14.5624,386.0625 11.2814,389.5555 11.2814,394.7405 C11.2814,400.0325 14.5624,403.5245 19.4304,403.5245 C21.3884,403.5245 22.7124,403.1545 23.2944,402.5195 L23.2944,399.4505 L18.4254,399.4505 C17.9494,399.4505 17.6324,399.2385 17.5794,398.8685 L16.8904,391.5655 C16.8384,391.0365 17.1554,390.6655 17.7374,390.6655 L32.0784,390.6655 Z" id="Fill-34" fill="#fff"></path>
        <path d="M77.4239,376.537 C77.8479,376.537 78.1649,376.908 78.1649,377.331 L78.1649,412.309 C78.1649,412.68 77.8479,413.05 77.4239,413.05 L67.6349,413.05 C67.2109,413.05 66.8409,412.68 66.8409,412.309 L66.8409,396.751 L61.4959,412.256 C61.3369,412.68 60.6499,413.05 60.1729,413.05 L54.3529,413.05 C53.8759,413.05 53.1889,412.68 53.0289,412.256 L47.6849,396.751 L47.6849,412.309 C47.6849,412.68 47.3149,413.05 46.8909,413.05 L37.1019,413.05 C36.6779,413.05 36.3609,412.68 36.3609,412.309 L36.3609,377.331 C36.3609,376.908 36.6779,376.537 37.1019,376.537 L48.1609,376.537 C48.8489,376.537 49.6429,377.014 49.9599,377.596 L57.2629,397.809 L64.5659,377.596 C64.8829,377.014 65.6769,376.537 66.3639,376.537 L77.4239,376.537 Z" id="Fill-35" fill="#fff"></path>
        <path d="M589.7648,403.8417 L589.7648,404.0527 L589.7648,403.8417 Z M598.2318,392.7817 C598.6548,392.7817 599.0258,393.1527 599.0258,393.5227 L599.0258,410.3507 C599.0258,410.8257 598.7608,411.3027 598.3908,411.6197 C595.2148,414.3197 590.3468,415.9057 585.2668,415.9057 C573.8368,415.9057 566.2168,408.2857 566.2168,396.8567 C566.2168,385.4257 573.8368,377.8057 585.2668,377.8057 C589.1828,377.8057 593.3108,378.9707 596.3788,380.8757 C596.8028,381.0867 596.9608,381.5107 596.8558,381.8277 L594.2098,389.6067 C594.0508,389.9777 593.6808,390.1357 593.2048,390.0297 C591.0358,388.8657 588.2308,388.1777 585.5838,388.1777 C580.7158,388.1777 577.4358,391.6707 577.4358,396.8567 C577.4358,402.1487 580.7158,405.6407 585.5838,405.6407 C587.5428,405.6407 588.8658,405.2707 589.4478,404.6347 L589.4478,401.5667 L584.5788,401.5667 C584.1028,401.5667 583.7858,401.3547 583.7328,400.9847 L583.0448,393.6817 C582.9918,393.1527 583.3088,392.7817 583.8908,392.7817 L598.2318,392.7817 Z" id="Fill-36" fill="#fff"></path>
        <path d="M632.8888,378.6527 C633.3658,378.6527 633.6818,379.0237 633.6818,379.4467 L633.6818,414.4247 C633.6818,414.7947 633.3658,415.1647 632.8888,415.1647 L623.7348,415.1647 C623.3638,415.1647 622.8868,414.9017 622.6228,414.4777 L613.4148,398.0207 L613.4148,414.4247 C613.4148,414.7947 613.0978,415.1647 612.6208,415.1647 L603.2548,415.1647 C602.8318,415.1647 602.5138,414.7947 602.5138,414.4247 L602.5138,379.4467 C602.5138,379.0237 602.8318,378.6527 603.2548,378.6527 L612.4098,378.6527 C612.8858,378.6527 613.4148,378.9177 613.6268,379.3407 L622.7818,395.7977 L622.7818,379.4467 C622.7818,379.0237 623.1528,378.6527 623.5218,378.6527 L632.8888,378.6527 Z" id="Fill-37" fill="#fff"></path>
        <path d="M452.5773,288.4515 C451.5203,288.4515 450.4473,288.2115 449.4383,287.7035 C445.9843,285.9675 444.5933,281.7605 446.3293,278.3055 C449.5613,271.8745 454.1703,259.3435 448.7063,247.6695 C443.8403,237.2715 431.9953,229.8095 413.5013,225.4885 C407.7313,224.1405 402.1923,220.3435 396.3293,216.3235 C384.8733,208.4675 373.0233,200.3465 357.0873,206.3185 C353.4473,207.6815 349.6423,208.9945 345.9623,210.2645 C344.1573,210.8875 342.3403,211.5135 340.5173,212.1555 C336.8743,213.4375 332.8753,211.5215 331.5923,207.8745 C330.3093,204.2265 332.2253,200.2305 335.8733,198.9485 C337.7223,198.2985 339.5653,197.6615 341.3953,197.0305 C345.1563,195.7325 348.7073,194.5075 352.1753,193.2075 C374.9333,184.6795 391.8773,196.2955 404.2463,204.7765 C408.9943,208.0315 413.4783,211.1065 416.6863,211.8555 C439.5703,217.2015 454.6093,227.2545 461.3863,241.7345 C469.3553,258.7625 463.2103,275.8965 458.8373,284.5945 C457.6073,287.0395 455.1403,288.4515 452.5773,288.4515" id="Fill-38" fill="#fff"></path>
        <path d="M224.0001,580.1532 C199.2221,580.1532 172.2391,570.1662 149.7901,550.5072 C107.5531,513.5182 97.1301,456.0882 126.5571,422.4842 C134.9501,412.9002 145.1031,406.3952 157.5961,402.5992 C161.2961,401.4752 165.2051,403.5632 166.3291,407.2622 C167.4531,410.9622 165.3651,414.8712 161.6661,415.9952 C151.7481,419.0082 143.7091,424.1482 137.0891,431.7072 C112.7481,459.5042 122.5831,508.0722 159.0141,539.9742 C195.4441,571.8792 244.8861,575.2172 269.2271,547.4222 C272.9561,543.1622 275.9601,538.3172 278.1541,533.0222 C279.6341,529.4512 283.7281,527.7542 287.3011,529.2352 C290.8721,530.7152 292.5671,534.8102 291.0881,538.3822 C288.3081,545.0902 284.4971,551.2342 279.7601,556.6442 C265.9731,572.3882 245.8421,580.1532 224.0001,580.1532" id="Fill-39" fill="#fff"></path>
        <path d="M296.5333,541.6903 C289.7283,541.6903 282.8273,541.1193 275.9383,539.9633 C252.4473,536.0233 231.8563,525.6113 217.9593,510.6433 C215.3283,507.8113 215.4923,503.3813 218.3253,500.7513 C221.1573,498.1213 225.5873,498.2853 228.2183,501.1183 C252.3273,527.0813 300.1723,535.5273 334.8703,519.9503 C338.3973,518.3653 342.5403,519.9433 344.1233,523.4683 C345.7073,526.9963 344.1313,531.1383 340.6043,532.7213 C327.4083,538.6463 312.2363,541.6903 296.5333,541.6903" id="Fill-40" fill="#fff"></path>
        <path d="M461.964,328.892 C461.239,328.892 460.502,328.779 459.776,328.539 C456.104,327.331 454.106,323.375 455.314,319.703 C458.354,310.461 455.307,299.222 446.953,288.868 C437.942,277.696 424.53,269.298 412.787,267.471 C408.968,266.877 406.353,263.298 406.946,259.478 C407.541,255.658 411.12,253.046 414.94,253.637 C433.135,256.468 449.036,269.151 457.85,280.078 C469.242,294.2 473.165,310.237 468.612,324.078 C467.644,327.023 464.905,328.892 461.964,328.892" id="Fill-41" fill="#fff"></path>
        <path d="M208.8097,454.9345 C193.8697,454.9345 177.2207,448.8405 165.1887,433.3605 C145.5687,408.1165 144.1377,377.7055 161.3617,352.0095 C163.5137,348.7975 167.8627,347.9385 171.0737,350.0925 C174.2857,352.2455 175.1437,356.5935 172.9907,359.8045 C159.2927,380.2395 160.5077,404.5255 176.2427,424.7685 C188.5687,440.6265 208.5097,443.7585 221.8387,438.6605 C226.9697,436.6965 238.7847,430.4145 237.6657,414.5395 C237.3947,410.6835 240.3007,407.3375 244.1577,407.0655 C247.9987,406.7865 251.3607,409.7005 251.6317,413.5565 C252.8637,431.0505 243.5967,445.3235 226.8427,451.7355 C221.5057,453.7775 215.3197,454.9345 208.8097,454.9345" id="Fill-42" fill="#fff"></path>
        <path d="M229.0782,422.2255 C216.9222,422.2255 203.5102,418.0165 190.9852,407.5795 C172.9272,392.5315 162.0452,370.8995 161.8772,349.7145 C161.7302,331.3495 169.6042,314.7995 184.6462,301.8525 C187.5772,299.3315 191.9952,299.6625 194.5182,302.5925 C197.0402,305.5225 196.7092,309.9425 193.7792,312.4645 C181.9552,322.6415 175.7642,335.4835 175.8762,349.6035 C176.0112,366.4695 185.2342,384.5635 199.9482,396.8255 C212.1982,407.0345 232.5132,413.2455 248.1632,402.7605 C257.8462,396.2735 261.2542,385.7295 257.5152,373.8305 C256.3552,370.1425 258.4062,366.2135 262.0942,365.0545 C265.7812,363.8955 269.7112,365.9455 270.8712,369.6335 C276.4372,387.3485 270.7232,404.4975 255.9552,414.3915 C248.7682,419.2055 239.3742,422.2255 229.0782,422.2255" id="Fill-43" fill="#fff"></path>
        <path d="M243.9503,381.0282 C237.0363,381.0282 230.3633,379.6532 224.5943,376.7682 C195.8533,362.3982 184.6453,335.0072 183.7393,314.1632 C183.1363,300.2972 191.0673,272.3902 214.9193,256.5362 C218.1383,254.3962 222.4833,255.2722 224.6233,258.4912 C226.7633,261.7112 225.8883,266.0562 222.6693,268.1952 C204.8233,280.0572 197.2343,302.2742 197.7253,313.5552 C197.9783,319.3812 200.7663,349.2022 230.8543,364.2462 C242.9423,370.2912 262.5713,366.0712 273.7193,355.0342 C280.6603,348.1612 287.0173,336.0372 277.8843,317.3072 C276.1893,313.8322 277.6333,309.6422 281.1073,307.9472 C284.5823,306.2522 288.7723,307.6952 290.4673,311.1712 C300.2873,331.3062 297.7723,350.9202 283.5693,364.9832 C273.1473,375.3022 258.0523,381.0282 243.9503,381.0282" id="Fill-44" fill="#fff"></path>
        <path d="M277.1017,319.5922 C260.4357,319.5922 244.2347,314.0342 231.1237,303.3822 C219.3867,293.8452 209.5677,271.7132 214.4877,249.4792 C220.8047,220.9382 247.5007,210.1902 262.8517,206.3242 C269.2077,204.7232 274.9457,202.7532 280.4927,200.8482 C297.8287,194.8962 314.2027,189.2742 337.1877,200.7062 C346.0507,205.1142 355.5537,207.3852 364.7447,209.5802 C387.0007,214.8972 410.0157,220.3962 415.4027,256.0942 C415.9787,259.9172 413.3477,263.4832 409.5247,264.0602 C405.7107,264.6342 402.1357,262.0062 401.5587,258.1832 C397.5807,231.8192 383.2237,228.3892 361.4917,223.1972 C352.0007,220.9302 341.2457,218.3612 330.9537,213.2412 C313.2087,204.4162 301.3927,208.4742 285.0387,214.0892 C279.2177,216.0882 273.1987,218.1552 266.2707,219.9002 C244.8647,225.2912 231.6847,236.5662 228.1577,252.5042 C224.6317,268.4342 231.5357,285.6772 239.9527,292.5162 C255.6097,305.2382 276.8017,308.9462 296.6447,302.4352 C317.6737,295.5342 333.2117,278.2032 339.2747,254.8852 C340.2467,251.1442 344.0687,248.9022 347.8107,249.8722 C351.5517,250.8442 353.7957,254.6662 352.8237,258.4082 C345.5397,286.4262 326.6537,307.3222 301.0087,315.7372 C293.1267,318.3232 285.0597,319.5922 277.1017,319.5922" id="Fill-45" fill="#fff"></path>
        <path d="M479.6476,396.1181 C478.9756,396.1181 478.2926,396.0201 477.6166,395.8151 C473.9166,394.6961 471.8246,390.7881 472.9456,387.0881 C479.2936,366.1211 475.5286,346.6661 462.6176,333.7101 C444.9866,316.0181 413.4196,312.2851 376.0156,323.4691 C372.3086,324.5771 368.4126,322.4721 367.3036,318.7671 C366.1966,315.0641 368.3016,311.1631 372.0056,310.0561 C414.5056,297.3491 451.1486,302.3681 472.5346,323.8281 C489.2006,340.5511 494.2336,365.0871 486.3436,391.1441 C485.4286,394.1681 482.6516,396.1181 479.6476,396.1181" id="Fill-46" fill="#fff"></path>
        <path d="M491.0031,451.3016 C490.5301,451.3016 490.0521,451.2536 489.5701,451.1546 C485.7851,450.3666 483.3561,446.6596 484.1431,442.8746 C488.8281,420.3496 483.5461,400.9216 469.6491,389.5746 C451.4101,374.6796 421.2941,374.5936 387.0241,389.3376 C383.4771,390.8636 379.3571,389.2256 377.8281,385.6746 C376.3001,382.1226 377.9401,378.0056 381.4911,376.4776 C420.7241,359.5996 456.0821,360.4196 478.5051,378.7306 C496.5841,393.4946 503.6351,417.9126 497.8501,445.7266 C497.1621,449.0306 494.2501,451.3016 491.0031,451.3016" id="Fill-47" fill="#fff"></path>
        <path d="M453.8771,442.12 C436.2031,442.12 416.4091,447.39 397.7241,458.178 C377.0291,470.125 360.9011,486.948 352.3111,505.547 C344.1011,523.322 343.8561,540.519 351.6231,553.971 C368.1401,582.578 415.6941,586.155 457.6331,561.942 C499.5691,537.73 520.2501,494.758 503.7331,466.149 C494.5761,450.288 475.8701,442.12 453.8771,442.12 M401.7021,591.936 C398.6471,591.936 395.6221,591.802 392.6331,591.529 C368.4751,589.327 349.6051,578.474 339.4981,560.971 C329.3931,543.467 329.4301,521.699 339.6021,499.676 C349.3941,478.476 367.5491,459.433 390.7241,446.053 C413.8981,432.674 439.4681,426.47 462.7241,428.592 C486.8821,430.794 505.7521,441.645 515.8581,459.149 C525.9641,476.653 525.9271,498.421 515.7551,520.444 C505.9631,541.643 487.8081,560.687 464.6331,574.067 C444.4371,585.727 422.4191,591.936 401.7021,591.936" id="Fill-48" fill="#fff"></path>
        <path d="M390.6115,555.7587 C388.1915,555.7587 385.8395,554.5037 384.5425,552.2577 C379.7545,543.9637 381.1185,533.2237 388.3835,522.0147 C394.7365,512.2127 405.1175,502.8417 417.6135,495.6267 C445.7335,479.3927 473.9245,479.2527 483.1925,495.3017 C485.1255,498.6497 483.9775,502.9307 480.6305,504.8637 C477.2815,506.7947 473.0015,505.6507 471.0675,502.3017 C467.2035,495.6097 447.6605,494.4447 424.6135,507.7517 C414.1515,513.7917 405.2285,521.7657 400.1315,529.6287 C395.9955,536.0097 394.7005,541.8527 396.6675,545.2577 C398.5995,548.6057 397.4525,552.8867 394.1045,554.8207 C393.0025,555.4557 391.7985,555.7587 390.6115,555.7587" id="Fill-49" fill="#fff"></path>
        <path d="M336.004,288.205 C334.16,288.205 332.319,287.481 330.944,286.043 C328.273,283.25 328.371,278.819 331.164,276.146 C344.687,263.212 365.438,254.297 386.673,252.298 C410.197,250.08 431.793,256.193 447.48,269.502 C450.427,272.003 450.789,276.421 448.288,279.369 C445.786,282.315 441.37,282.679 438.421,280.177 C425.636,269.329 407.719,264.379 387.985,266.236 C369.784,267.95 352.161,275.436 340.842,286.264 C339.485,287.56 337.743,288.205 336.004,288.205" id="Fill-50" fill="#fff"></path>
        <line x1="130.6085" y1="245.4608" x2="164.4255" y2="263.0418" id="Fill-51" fill="#E6E6E6"></line>
        <path d="M164.42,270.0438 C163.332,270.0438 162.229,269.7898 161.196,269.2528 L127.379,251.6718 C123.949,249.8878 122.614,245.6618 124.398,242.2318 C126.181,238.8018 130.407,237.4678 133.837,239.2498 L167.654,256.8318 C171.085,258.6148 172.42,262.8408 170.637,266.2718 C169.39,268.6688 166.948,270.0438 164.42,270.0438" id="Fill-52" fill="#fff"></path>
        <line x1="202.6085" y1="149.1815" x2="225.2125" y2="177.6465" id="Fill-53" fill="#E6E6E6"></line>
        <path d="M225.2169,184.6473 C223.1549,184.6473 221.1129,183.7403 219.7309,182.0003 L197.1259,153.5353 C194.7229,150.5073 195.2279,146.1043 198.2549,143.7003 C201.2819,141.2953 205.6849,141.8003 208.0899,144.8293 L230.6949,173.2933 C233.0989,176.3213 232.5939,180.7243 229.5659,183.1283 C228.2789,184.1503 226.7419,184.6473 225.2169,184.6473" id="Fill-54" fill="#fff"></path>
        <line x1="324.6603" y1="108.1586" x2="324.3863" y2="145.4506" id="Fill-55" fill="#E6E6E6"></line>
        <path d="M324.3868,152.4506 L324.3338,152.4506 C320.4678,152.4216 317.3578,149.2646 317.3858,145.3986 L317.6598,108.1076 C317.6888,104.2586 320.8178,101.1586 324.6588,101.1586 L324.7108,101.1586 C328.5768,101.1876 331.6878,104.3446 331.6588,108.2106 L331.3848,145.5016 C331.3568,149.3506 328.2288,152.4506 324.3868,152.4506" id="Fill-56" fill="#fff"></path>
        <line x1="530.6134" y1="247.9721" x2="496.7964" y2="265.5541" id="Fill-57" fill="#E6E6E6"></line>
        <path d="M496.8009,272.5556 C494.2729,272.5556 491.8309,271.1816 490.5839,268.7836 C488.8009,265.3526 490.1359,261.1266 493.5669,259.3436 L527.3839,241.7616 C530.8119,239.9796 535.0389,241.3126 536.8229,244.7436 C538.6069,248.1736 537.2719,252.3996 533.8409,254.1836 L500.0239,271.7646 C498.9919,272.3016 497.8889,272.5556 496.8009,272.5556" id="Fill-58" fill="#fff"></path>
        <line x1="461.1251" y1="153.3676" x2="437.6831" y2="180.9956" id="Fill-59" fill="#E6E6E6"></line>
        <path d="M437.6788,187.996 C436.0778,187.996 434.4698,187.45 433.1548,186.333 C430.2058,183.832 429.8438,179.415 432.3448,176.467 L455.7858,148.839 C458.2868,145.892 462.7048,145.528 465.6528,148.031 C468.6008,150.532 468.9628,154.949 466.4618,157.897 L443.0208,185.525 C441.6358,187.157 439.6638,187.996 437.6788,187.996" id="Fill-60" fill="#fff"></path>
        <line x1="196.6085" y1="640.3202" x2="219.2125" y2="611.8552" id="Fill-61" fill="#E6E6E6"></line>
        <path d="M196.6036,647.3202 C195.0786,647.3202 193.5416,646.8242 192.2546,645.8012 C189.2276,643.3972 188.7226,638.9942 191.1256,635.9662 L213.7306,607.5022 C216.1346,604.4732 220.5386,603.9682 223.5656,606.3742 C226.5936,608.7782 227.0986,613.1812 224.6946,616.2092 L202.0896,644.6742 C200.7076,646.4142 198.6656,647.3202 196.6036,647.3202" id="Fill-62" fill="#fff"></path>
        <line x1="318.6603" y1="681.3436" x2="318.3863" y2="644.0516" id="Fill-63" fill="#E6E6E6"></line>
        <path d="M318.6593,688.3436 C314.8163,688.3436 311.6883,685.2436 311.6603,681.3956 L311.3863,644.1036 C311.3573,640.2376 314.4683,637.0796 318.3343,637.0516 L318.3873,637.0516 C322.2283,637.0516 325.3573,640.1516 325.3863,643.9996 L325.6603,681.2916 C325.6883,685.1576 322.5773,688.3156 318.7113,688.3436 L318.6593,688.3436 Z" id="Fill-64" fill="#fff"></path>
        <line x1="443.5665" y1="640.3202" x2="420.9625" y2="611.8552" id="Fill-65" fill="#E6E6E6"></line>
        <path d="M443.5714,647.3202 C441.5084,647.3202 439.4674,646.4142 438.0854,644.6742 L415.4804,616.2092 C413.0764,613.1812 413.5814,608.7782 416.6084,606.3742 C419.6374,603.9682 424.0414,604.4762 426.4434,607.5022 L449.0484,635.9662 C451.4524,638.9942 450.9474,643.3972 447.9204,645.8012 C446.6334,646.8242 445.0954,647.3202 443.5714,647.3202" id="Fill-66" fill="#fff"></path>
    </g>
</svg>
